<mxfile host="Electron" modified="2023-11-01T16:01:33.372Z" agent="Mozilla/5.0 (Windows NT 10.0; Win64; x64) AppleWebKit/537.36 (KHTML, like Gecko) draw.io/22.0.3 Chrome/114.0.5735.289 Electron/25.8.4 Safari/537.36" etag="1psalv_sLo9Ugat6cAGb" version="22.0.3" type="device">
  <diagram name="Seite-1" id="--ozfM8hDy5gh06NpCwV">
    <mxGraphModel dx="2901" dy="1204" grid="1" gridSize="10" guides="1" tooltips="1" connect="1" arrows="1" fold="1" page="1" pageScale="1" pageWidth="827" pageHeight="1169" math="0" shadow="0">
      <root>
        <mxCell id="0" />
        <mxCell id="1" parent="0" />
        <mxCell id="crZmofNMqnxurM5i3zVq-5" style="edgeStyle=orthogonalEdgeStyle;rounded=1;orthogonalLoop=1;jettySize=auto;html=1;exitX=1;exitY=0.75;exitDx=0;exitDy=0;endArrow=none;endFill=0;" edge="1" parent="1" source="crZmofNMqnxurM5i3zVq-1" target="crZmofNMqnxurM5i3zVq-3">
          <mxGeometry relative="1" as="geometry" />
        </mxCell>
        <mxCell id="crZmofNMqnxurM5i3zVq-1" value="aaa_bbb" style="shape=hexagon;perimeter=hexagonPerimeter2;whiteSpace=wrap;html=1;fixedSize=1;fillColor=#A9C4EB;" vertex="1" parent="1">
          <mxGeometry x="280" y="200" width="160" height="80" as="geometry" />
        </mxCell>
        <mxCell id="crZmofNMqnxurM5i3zVq-22" style="edgeStyle=orthogonalEdgeStyle;shape=connector;rounded=1;orthogonalLoop=1;jettySize=auto;html=1;entryX=0;entryY=0.5;entryDx=0;entryDy=0;labelBackgroundColor=default;strokeColor=default;align=center;verticalAlign=middle;fontFamily=Helvetica;fontSize=11;fontColor=default;endArrow=none;endFill=0;" edge="1" parent="1" source="crZmofNMqnxurM5i3zVq-2" target="crZmofNMqnxurM5i3zVq-1">
          <mxGeometry relative="1" as="geometry" />
        </mxCell>
        <mxCell id="crZmofNMqnxurM5i3zVq-2" value="AAA&lt;br&gt;(F1_MULTI_BK1, F2_AAA_BK2)" style="ellipse;whiteSpace=wrap;html=1;fillColor=#0000FF;fontColor=#ffffff;strokeColor=#000000;" vertex="1" parent="1">
          <mxGeometry y="480" width="160" height="80" as="geometry" />
        </mxCell>
        <mxCell id="crZmofNMqnxurM5i3zVq-3" value="BBB&lt;br&gt;(BBB_BK2, F1_MULTI_BK1)" style="ellipse;whiteSpace=wrap;html=1;fillColor=#0000FF;fontColor=#ffffff;strokeColor=#000000;" vertex="1" parent="1">
          <mxGeometry x="560" y="200" width="160" height="80" as="geometry" />
        </mxCell>
        <mxCell id="crZmofNMqnxurM5i3zVq-7" style="edgeStyle=orthogonalEdgeStyle;rounded=1;orthogonalLoop=1;jettySize=auto;html=1;exitX=1;exitY=0.25;exitDx=0;exitDy=0;endArrow=none;endFill=0;entryX=0;entryY=0.5;entryDx=0;entryDy=0;" edge="1" parent="1" source="crZmofNMqnxurM5i3zVq-1" target="crZmofNMqnxurM5i3zVq-3">
          <mxGeometry relative="1" as="geometry">
            <mxPoint x="441" y="268" as="sourcePoint" />
            <mxPoint x="570" y="250" as="targetPoint" />
          </mxGeometry>
        </mxCell>
        <mxCell id="crZmofNMqnxurM5i3zVq-8" value="sss_esat" style="rounded=1;whiteSpace=wrap;html=1;arcSize=50;fillColor=#fff2cc;strokeColor=#000000;" vertex="1" parent="1">
          <mxGeometry x="260" y="170" width="90" height="40" as="geometry" />
        </mxCell>
        <mxCell id="crZmofNMqnxurM5i3zVq-9" value="ttt_esat" style="rounded=1;whiteSpace=wrap;html=1;arcSize=50;fillColor=#fff2cc;strokeColor=#000000;" vertex="1" parent="1">
          <mxGeometry x="369" y="170" width="90" height="40" as="geometry" />
        </mxCell>
        <mxCell id="crZmofNMqnxurM5i3zVq-10" value="CCC&lt;br&gt;(F1_MULTI_BK1, F5_CCC_BK2)" style="ellipse;whiteSpace=wrap;html=1;fillColor=#0000FF;fontColor=#ffffff;strokeColor=#000000;" vertex="1" parent="1">
          <mxGeometry x="560" y="480" width="160" height="80" as="geometry" />
        </mxCell>
        <mxCell id="crZmofNMqnxurM5i3zVq-12" style="edgeStyle=orthogonalEdgeStyle;shape=connector;curved=1;rounded=0;orthogonalLoop=1;jettySize=auto;html=1;entryX=0;entryY=0.5;entryDx=0;entryDy=0;labelBackgroundColor=default;strokeColor=default;align=center;verticalAlign=middle;fontFamily=Helvetica;fontSize=11;fontColor=default;endArrow=none;endFill=0;" edge="1" parent="1" source="crZmofNMqnxurM5i3zVq-11" target="crZmofNMqnxurM5i3zVq-10">
          <mxGeometry relative="1" as="geometry" />
        </mxCell>
        <mxCell id="crZmofNMqnxurM5i3zVq-13" style="edgeStyle=orthogonalEdgeStyle;shape=connector;rounded=1;orthogonalLoop=1;jettySize=auto;html=1;entryX=1;entryY=0.5;entryDx=0;entryDy=0;labelBackgroundColor=default;strokeColor=default;align=center;verticalAlign=middle;fontFamily=Helvetica;fontSize=11;fontColor=default;endArrow=none;endFill=0;" edge="1" parent="1" source="crZmofNMqnxurM5i3zVq-11" target="crZmofNMqnxurM5i3zVq-2">
          <mxGeometry relative="1" as="geometry" />
        </mxCell>
        <mxCell id="crZmofNMqnxurM5i3zVq-17" style="edgeStyle=orthogonalEdgeStyle;shape=connector;curved=1;rounded=0;orthogonalLoop=1;jettySize=auto;html=1;entryX=0.5;entryY=0;entryDx=0;entryDy=0;labelBackgroundColor=default;strokeColor=default;align=center;verticalAlign=middle;fontFamily=Helvetica;fontSize=11;fontColor=default;endArrow=none;endFill=0;" edge="1" parent="1" source="crZmofNMqnxurM5i3zVq-11" target="crZmofNMqnxurM5i3zVq-16">
          <mxGeometry relative="1" as="geometry" />
        </mxCell>
        <mxCell id="crZmofNMqnxurM5i3zVq-11" value="aaa_ccc&lt;br&gt;(F13_AAA_CCC_DC1)" style="shape=hexagon;perimeter=hexagonPerimeter2;whiteSpace=wrap;html=1;fixedSize=1;fillColor=#A9C4EB;" vertex="1" parent="1">
          <mxGeometry x="280" y="480" width="160" height="80" as="geometry" />
        </mxCell>
        <mxCell id="crZmofNMqnxurM5i3zVq-16" value="aaa_ccc_p1_sat" style="rounded=1;whiteSpace=wrap;html=1;fontFamily=Helvetica;fontSize=11;fillColor=#fff2cc;strokeColor=#000000;" vertex="1" parent="1">
          <mxGeometry x="300" y="580" width="120" height="60" as="geometry" />
        </mxCell>
        <mxCell id="crZmofNMqnxurM5i3zVq-24" style="edgeStyle=orthogonalEdgeStyle;shape=connector;rounded=1;orthogonalLoop=1;jettySize=auto;html=1;entryX=1;entryY=0.25;entryDx=0;entryDy=0;labelBackgroundColor=default;strokeColor=default;align=center;verticalAlign=middle;fontFamily=Helvetica;fontSize=11;fontColor=default;endArrow=none;endFill=0;" edge="1" parent="1" source="crZmofNMqnxurM5i3zVq-18" target="crZmofNMqnxurM5i3zVq-19">
          <mxGeometry relative="1" as="geometry" />
        </mxCell>
        <mxCell id="crZmofNMqnxurM5i3zVq-18" value="DDD&lt;br&gt;(DDD_BK1)" style="ellipse;whiteSpace=wrap;html=1;fillColor=#0000FF;fontColor=#ffffff;strokeColor=#000000;" vertex="1" parent="1">
          <mxGeometry x="560" y="800" width="160" height="80" as="geometry" />
        </mxCell>
        <mxCell id="crZmofNMqnxurM5i3zVq-20" style="edgeStyle=orthogonalEdgeStyle;shape=connector;rounded=1;orthogonalLoop=1;jettySize=auto;html=1;entryX=0;entryY=0.5;entryDx=0;entryDy=0;labelBackgroundColor=default;strokeColor=default;align=center;verticalAlign=middle;fontFamily=Helvetica;fontSize=11;fontColor=default;endArrow=none;endFill=0;exitX=1;exitY=0.75;exitDx=0;exitDy=0;" edge="1" parent="1" source="crZmofNMqnxurM5i3zVq-19" target="crZmofNMqnxurM5i3zVq-18">
          <mxGeometry relative="1" as="geometry" />
        </mxCell>
        <mxCell id="crZmofNMqnxurM5i3zVq-21" style="edgeStyle=orthogonalEdgeStyle;shape=connector;rounded=1;orthogonalLoop=1;jettySize=auto;html=1;entryX=1;entryY=0.5;entryDx=0;entryDy=0;labelBackgroundColor=default;strokeColor=default;align=center;verticalAlign=middle;fontFamily=Helvetica;fontSize=11;fontColor=default;endArrow=none;endFill=0;" edge="1" parent="1" source="crZmofNMqnxurM5i3zVq-19" target="crZmofNMqnxurM5i3zVq-2">
          <mxGeometry relative="1" as="geometry" />
        </mxCell>
        <mxCell id="crZmofNMqnxurM5i3zVq-19" value="aaa_ddd&lt;br&gt;" style="shape=hexagon;perimeter=hexagonPerimeter2;whiteSpace=wrap;html=1;fixedSize=1;fillColor=#A9C4EB;" vertex="1" parent="1">
          <mxGeometry x="280" y="800" width="160" height="80" as="geometry" />
        </mxCell>
        <mxCell id="crZmofNMqnxurM5i3zVq-26" style="edgeStyle=orthogonalEdgeStyle;shape=connector;rounded=1;orthogonalLoop=1;jettySize=auto;html=1;labelBackgroundColor=default;strokeColor=default;align=center;verticalAlign=middle;fontFamily=Helvetica;fontSize=11;fontColor=default;endArrow=none;endFill=0;" edge="1" parent="1" source="crZmofNMqnxurM5i3zVq-25" target="crZmofNMqnxurM5i3zVq-2">
          <mxGeometry relative="1" as="geometry" />
        </mxCell>
        <mxCell id="crZmofNMqnxurM5i3zVq-25" value="aaa_p1_sat" style="rounded=1;whiteSpace=wrap;html=1;fontFamily=Helvetica;fontSize=11;fillColor=#fff2cc;strokeColor=#000000;" vertex="1" parent="1">
          <mxGeometry x="-280" y="490" width="120" height="60" as="geometry" />
        </mxCell>
        <mxCell id="crZmofNMqnxurM5i3zVq-28" style="edgeStyle=orthogonalEdgeStyle;shape=connector;rounded=1;orthogonalLoop=1;jettySize=auto;html=1;labelBackgroundColor=default;strokeColor=default;align=center;verticalAlign=middle;fontFamily=Helvetica;fontSize=11;fontColor=default;endArrow=none;endFill=0;entryX=1;entryY=0.5;entryDx=0;entryDy=0;" edge="1" parent="1" source="crZmofNMqnxurM5i3zVq-27" target="crZmofNMqnxurM5i3zVq-18">
          <mxGeometry relative="1" as="geometry">
            <mxPoint x="690" y="840" as="targetPoint" />
          </mxGeometry>
        </mxCell>
        <mxCell id="crZmofNMqnxurM5i3zVq-27" value="ddd_p1_sat" style="rounded=1;whiteSpace=wrap;html=1;fontFamily=Helvetica;fontSize=11;fillColor=#fff2cc;strokeColor=#000000;" vertex="1" parent="1">
          <mxGeometry x="880" y="810" width="120" height="60" as="geometry" />
        </mxCell>
        <mxCell id="crZmofNMqnxurM5i3zVq-29" value="eee_ref" style="rounded=0;whiteSpace=wrap;html=1;strokeColor=#000000;align=center;verticalAlign=middle;fontFamily=Helvetica;fontSize=11;fontColor=default;fillColor=#B9E0A5;" vertex="1" parent="1">
          <mxGeometry x="-280" y="210" width="120" height="60" as="geometry" />
        </mxCell>
        <mxCell id="crZmofNMqnxurM5i3zVq-32" value="*" style="whiteSpace=wrap;html=1;shape=mxgraph.basic.pentagon;rounded=1;align=center;verticalAlign=middle;fontFamily=Helvetica;fontSize=11;" vertex="1" parent="1">
          <mxGeometry y="440" width="40" height="40" as="geometry" />
        </mxCell>
        <mxCell id="crZmofNMqnxurM5i3zVq-33" value="" style="shape=waypoint;sketch=0;fillStyle=solid;size=6;pointerEvents=1;points=[];resizable=0;rotatable=0;perimeter=centerPerimeter;snapToPoint=1;rounded=1;align=center;verticalAlign=middle;fontFamily=Helvetica;fontSize=11;html=1;strokeColor=#FFFFFF;" vertex="1" parent="1">
          <mxGeometry x="50" y="540" width="20" height="20" as="geometry" />
        </mxCell>
        <mxCell id="crZmofNMqnxurM5i3zVq-34" value="*" style="whiteSpace=wrap;html=1;shape=mxgraph.basic.pentagon;rounded=1;align=center;verticalAlign=middle;fontFamily=Helvetica;fontSize=11;" vertex="1" parent="1">
          <mxGeometry x="-280" y="450" width="40" height="40" as="geometry" />
        </mxCell>
        <mxCell id="crZmofNMqnxurM5i3zVq-35" value="" style="shape=waypoint;sketch=0;fillStyle=solid;size=6;pointerEvents=1;points=[];resizable=0;rotatable=0;perimeter=centerPerimeter;snapToPoint=1;rounded=1;align=center;verticalAlign=middle;fontFamily=Helvetica;fontSize=11;html=1;strokeColor=#FFFFFF;" vertex="1" parent="1">
          <mxGeometry x="-270" y="530" width="20" height="20" as="geometry" />
        </mxCell>
        <mxCell id="crZmofNMqnxurM5i3zVq-36" value="/" style="whiteSpace=wrap;html=1;shape=mxgraph.basic.pentagon;rounded=1;align=center;verticalAlign=middle;fontFamily=Helvetica;fontSize=11;fillColor=#ffe6cc;strokeColor=#d79b00;" vertex="1" parent="1">
          <mxGeometry x="280" y="280" width="40" height="40" as="geometry" />
        </mxCell>
        <mxCell id="crZmofNMqnxurM5i3zVq-39" value="" style="shape=waypoint;sketch=0;fillStyle=solid;size=6;pointerEvents=1;points=[];resizable=0;rotatable=0;perimeter=centerPerimeter;snapToPoint=1;rounded=1;align=center;verticalAlign=middle;fontFamily=Helvetica;fontSize=11;html=1;strokeColor=#d79b00;fillColor=#ffe6cc;" vertex="1" parent="1">
          <mxGeometry x="300" y="250" width="20" height="20" as="geometry" />
        </mxCell>
        <mxCell id="crZmofNMqnxurM5i3zVq-40" value="TTT" style="whiteSpace=wrap;html=1;shape=mxgraph.basic.pentagon;rounded=1;align=center;verticalAlign=middle;fontFamily=Helvetica;fontSize=11;fillColor=#f8cecc;strokeColor=#b85450;" vertex="1" parent="1">
          <mxGeometry x="320" y="280" width="40" height="40" as="geometry" />
        </mxCell>
        <mxCell id="crZmofNMqnxurM5i3zVq-41" value="" style="shape=waypoint;sketch=0;fillStyle=solid;size=6;pointerEvents=1;points=[];resizable=0;rotatable=0;perimeter=centerPerimeter;snapToPoint=1;rounded=1;align=center;verticalAlign=middle;fontFamily=Helvetica;fontSize=11;html=1;strokeColor=#b85450;fillColor=#f8cecc;" vertex="1" parent="1">
          <mxGeometry x="330" y="250" width="20" height="20" as="geometry" />
        </mxCell>
        <mxCell id="crZmofNMqnxurM5i3zVq-42" value="/" style="whiteSpace=wrap;html=1;shape=mxgraph.basic.pentagon;rounded=1;align=center;verticalAlign=middle;fontFamily=Helvetica;fontSize=11;fillColor=#ffe6cc;strokeColor=#d79b00;" vertex="1" parent="1">
          <mxGeometry x="285" y="130" width="40" height="40" as="geometry" />
        </mxCell>
        <mxCell id="crZmofNMqnxurM5i3zVq-43" value="" style="shape=waypoint;sketch=0;fillStyle=solid;size=6;pointerEvents=1;points=[];resizable=0;rotatable=0;perimeter=centerPerimeter;snapToPoint=1;rounded=1;align=center;verticalAlign=middle;fontFamily=Helvetica;fontSize=11;html=1;strokeColor=#d79b00;fillColor=#ffe6cc;" vertex="1" parent="1">
          <mxGeometry x="282" y="190" width="20" height="20" as="geometry" />
        </mxCell>
        <mxCell id="crZmofNMqnxurM5i3zVq-45" value="TTT" style="whiteSpace=wrap;html=1;shape=mxgraph.basic.pentagon;rounded=1;align=center;verticalAlign=middle;fontFamily=Helvetica;fontSize=11;fillColor=#f8cecc;strokeColor=#b85450;" vertex="1" parent="1">
          <mxGeometry x="394" y="130" width="40" height="40" as="geometry" />
        </mxCell>
        <mxCell id="crZmofNMqnxurM5i3zVq-47" value="" style="shape=waypoint;sketch=0;fillStyle=solid;size=6;pointerEvents=1;points=[];resizable=0;rotatable=0;perimeter=centerPerimeter;snapToPoint=1;rounded=1;align=center;verticalAlign=middle;fontFamily=Helvetica;fontSize=11;html=1;strokeColor=#b85450;fillColor=#f8cecc;" vertex="1" parent="1">
          <mxGeometry x="390" y="190" width="20" height="20" as="geometry" />
        </mxCell>
        <mxCell id="crZmofNMqnxurM5i3zVq-48" value="*" style="whiteSpace=wrap;html=1;shape=mxgraph.basic.pentagon;rounded=1;align=center;verticalAlign=middle;fontFamily=Helvetica;fontSize=11;" vertex="1" parent="1">
          <mxGeometry x="560" y="440" width="40" height="40" as="geometry" />
        </mxCell>
        <mxCell id="crZmofNMqnxurM5i3zVq-49" value="" style="shape=waypoint;sketch=0;fillStyle=solid;size=6;pointerEvents=1;points=[];resizable=0;rotatable=0;perimeter=centerPerimeter;snapToPoint=1;rounded=1;align=center;verticalAlign=middle;fontFamily=Helvetica;fontSize=11;html=1;strokeColor=#FFFFFF;" vertex="1" parent="1">
          <mxGeometry x="600" y="540" width="20" height="20" as="geometry" />
        </mxCell>
        <mxCell id="crZmofNMqnxurM5i3zVq-50" value="*" style="whiteSpace=wrap;html=1;shape=mxgraph.basic.pentagon;rounded=1;align=center;verticalAlign=middle;fontFamily=Helvetica;fontSize=11;" vertex="1" parent="1">
          <mxGeometry x="280" y="440" width="40" height="40" as="geometry" />
        </mxCell>
        <mxCell id="crZmofNMqnxurM5i3zVq-51" value="" style="shape=waypoint;sketch=0;fillStyle=solid;size=6;pointerEvents=1;points=[];resizable=0;rotatable=0;perimeter=centerPerimeter;snapToPoint=1;rounded=1;align=center;verticalAlign=middle;fontFamily=Helvetica;fontSize=11;html=1;strokeColor=#FFFFFF;" vertex="1" parent="1">
          <mxGeometry x="310" y="540" width="20" height="20" as="geometry" />
        </mxCell>
        <mxCell id="crZmofNMqnxurM5i3zVq-52" value="/" style="whiteSpace=wrap;html=1;shape=mxgraph.basic.pentagon;rounded=1;align=center;verticalAlign=middle;fontFamily=Helvetica;fontSize=11;fillColor=#ffe6cc;strokeColor=#d79b00;" vertex="1" parent="1">
          <mxGeometry x="340" y="640" width="40" height="40" as="geometry" />
        </mxCell>
        <mxCell id="crZmofNMqnxurM5i3zVq-53" value="" style="shape=waypoint;sketch=0;fillStyle=solid;size=6;pointerEvents=1;points=[];resizable=0;rotatable=0;perimeter=centerPerimeter;snapToPoint=1;rounded=1;align=center;verticalAlign=middle;fontFamily=Helvetica;fontSize=11;html=1;strokeColor=#d79b00;fillColor=#ffe6cc;" vertex="1" parent="1">
          <mxGeometry x="349" y="620" width="20" height="20" as="geometry" />
        </mxCell>
        <mxCell id="crZmofNMqnxurM5i3zVq-54" value="UUU" style="whiteSpace=wrap;html=1;shape=mxgraph.basic.pentagon;rounded=1;align=center;verticalAlign=middle;fontFamily=Helvetica;fontSize=11;fillColor=#d5e8d4;strokeColor=#82b366;" vertex="1" parent="1">
          <mxGeometry x="560" y="760" width="40" height="40" as="geometry" />
        </mxCell>
        <mxCell id="crZmofNMqnxurM5i3zVq-55" value="" style="shape=waypoint;sketch=0;fillStyle=solid;size=6;pointerEvents=1;points=[];resizable=0;rotatable=0;perimeter=centerPerimeter;snapToPoint=1;rounded=1;align=center;verticalAlign=middle;fontFamily=Helvetica;fontSize=11;html=1;strokeColor=#82b366;fillColor=#d5e8d4;" vertex="1" parent="1">
          <mxGeometry x="590" y="850" width="20" height="20" as="geometry" />
        </mxCell>
        <mxCell id="crZmofNMqnxurM5i3zVq-56" value="WWW" style="whiteSpace=wrap;html=1;shape=mxgraph.basic.pentagon;rounded=1;align=center;verticalAlign=middle;fontFamily=Helvetica;fontSize=11;fillColor=#e1d5e7;strokeColor=#9673a6;" vertex="1" parent="1">
          <mxGeometry x="600" y="760" width="40" height="40" as="geometry" />
        </mxCell>
        <mxCell id="crZmofNMqnxurM5i3zVq-57" value="" style="shape=waypoint;sketch=0;fillStyle=solid;size=6;pointerEvents=1;points=[];resizable=0;rotatable=0;perimeter=centerPerimeter;snapToPoint=1;rounded=1;align=center;verticalAlign=middle;fontFamily=Helvetica;fontSize=11;html=1;strokeColor=#9673a6;fillColor=#e1d5e7;" vertex="1" parent="1">
          <mxGeometry x="610" y="850" width="20" height="20" as="geometry" />
        </mxCell>
        <mxCell id="crZmofNMqnxurM5i3zVq-58" value="/" style="whiteSpace=wrap;html=1;shape=mxgraph.basic.pentagon;rounded=1;align=center;verticalAlign=middle;fontFamily=Helvetica;fontSize=11;fillColor=#ffe6cc;strokeColor=#d79b00;" vertex="1" parent="1">
          <mxGeometry x="339" y="760" width="40" height="40" as="geometry" />
        </mxCell>
        <mxCell id="crZmofNMqnxurM5i3zVq-59" value="" style="shape=waypoint;sketch=0;fillStyle=solid;size=6;pointerEvents=1;points=[];resizable=0;rotatable=0;perimeter=centerPerimeter;snapToPoint=1;rounded=1;align=center;verticalAlign=middle;fontFamily=Helvetica;fontSize=11;html=1;strokeColor=#d79b00;fillColor=#ffe6cc;" vertex="1" parent="1">
          <mxGeometry x="349" y="860" width="20" height="20" as="geometry" />
        </mxCell>
        <mxCell id="crZmofNMqnxurM5i3zVq-60" value="UUU" style="whiteSpace=wrap;html=1;shape=mxgraph.basic.pentagon;rounded=1;align=center;verticalAlign=middle;fontFamily=Helvetica;fontSize=11;fillColor=#d5e8d4;strokeColor=#82b366;" vertex="1" parent="1">
          <mxGeometry x="880" y="770" width="40" height="40" as="geometry" />
        </mxCell>
        <mxCell id="crZmofNMqnxurM5i3zVq-61" value="" style="shape=waypoint;sketch=0;fillStyle=solid;size=6;pointerEvents=1;points=[];resizable=0;rotatable=0;perimeter=centerPerimeter;snapToPoint=1;rounded=1;align=center;verticalAlign=middle;fontFamily=Helvetica;fontSize=11;html=1;strokeColor=#82b366;fillColor=#d5e8d4;" vertex="1" parent="1">
          <mxGeometry x="890" y="850" width="20" height="20" as="geometry" />
        </mxCell>
        <mxCell id="crZmofNMqnxurM5i3zVq-62" value="WWW" style="whiteSpace=wrap;html=1;shape=mxgraph.basic.pentagon;rounded=1;align=center;verticalAlign=middle;fontFamily=Helvetica;fontSize=11;fillColor=#e1d5e7;strokeColor=#9673a6;" vertex="1" parent="1">
          <mxGeometry x="920" y="770" width="40" height="40" as="geometry" />
        </mxCell>
        <mxCell id="crZmofNMqnxurM5i3zVq-63" value="" style="shape=waypoint;sketch=0;fillStyle=solid;size=6;pointerEvents=1;points=[];resizable=0;rotatable=0;perimeter=centerPerimeter;snapToPoint=1;rounded=1;align=center;verticalAlign=middle;fontFamily=Helvetica;fontSize=11;html=1;strokeColor=#9673a6;fillColor=#e1d5e7;" vertex="1" parent="1">
          <mxGeometry x="930" y="850" width="20" height="20" as="geometry" />
        </mxCell>
        <mxCell id="crZmofNMqnxurM5i3zVq-64" value="/" style="whiteSpace=wrap;html=1;shape=mxgraph.basic.pentagon;rounded=1;align=center;verticalAlign=middle;fontFamily=Helvetica;fontSize=11;fillColor=#ffe6cc;strokeColor=#d79b00;" vertex="1" parent="1">
          <mxGeometry x="-280" y="170" width="40" height="40" as="geometry" />
        </mxCell>
        <mxCell id="crZmofNMqnxurM5i3zVq-65" value="" style="shape=waypoint;sketch=0;fillStyle=solid;size=6;pointerEvents=1;points=[];resizable=0;rotatable=0;perimeter=centerPerimeter;snapToPoint=1;rounded=1;align=center;verticalAlign=middle;fontFamily=Helvetica;fontSize=11;html=1;strokeColor=#d79b00;fillColor=#ffe6cc;" vertex="1" parent="1">
          <mxGeometry x="-270" y="250" width="20" height="20" as="geometry" />
        </mxCell>
        <mxCell id="crZmofNMqnxurM5i3zVq-66" value="/" style="whiteSpace=wrap;html=1;shape=mxgraph.basic.pentagon;rounded=1;align=center;verticalAlign=middle;fontFamily=Helvetica;fontSize=11;fillColor=#ffe6cc;strokeColor=#d79b00;" vertex="1" parent="1">
          <mxGeometry x="560" y="160" width="40" height="40" as="geometry" />
        </mxCell>
        <mxCell id="crZmofNMqnxurM5i3zVq-67" value="" style="shape=waypoint;sketch=0;fillStyle=solid;size=6;pointerEvents=1;points=[];resizable=0;rotatable=0;perimeter=centerPerimeter;snapToPoint=1;rounded=1;align=center;verticalAlign=middle;fontFamily=Helvetica;fontSize=11;html=1;strokeColor=#d79b00;fillColor=#ffe6cc;" vertex="1" parent="1">
          <mxGeometry x="600" y="250" width="20" height="20" as="geometry" />
        </mxCell>
        <mxCell id="crZmofNMqnxurM5i3zVq-68" value="TTT" style="whiteSpace=wrap;html=1;shape=mxgraph.basic.pentagon;rounded=1;align=center;verticalAlign=middle;fontFamily=Helvetica;fontSize=11;fillColor=#f8cecc;strokeColor=#b85450;" vertex="1" parent="1">
          <mxGeometry x="600" y="160" width="40" height="40" as="geometry" />
        </mxCell>
        <mxCell id="crZmofNMqnxurM5i3zVq-69" value="" style="shape=waypoint;sketch=0;fillStyle=solid;size=6;pointerEvents=1;points=[];resizable=0;rotatable=0;perimeter=centerPerimeter;snapToPoint=1;rounded=1;align=center;verticalAlign=middle;fontFamily=Helvetica;fontSize=11;html=1;strokeColor=#b85450;fillColor=#f8cecc;" vertex="1" parent="1">
          <mxGeometry x="620" y="250" width="20" height="20" as="geometry" />
        </mxCell>
      </root>
    </mxGraphModel>
  </diagram>
</mxfile>
